<?xml version="1.0" encoding="UTF-8"?>
<svg version="1.1" xmlns="http://www.w3.org/2000/svg" width="32" height="32">
<path d="M0 0 C0.66 0 1.32 0 2 0 C3.54296875 1.79296875 3.54296875 1.79296875 5.1875 4.1875 C6.01314453 5.35345703 6.01314453 5.35345703 6.85546875 6.54296875 C8.24606322 9.52823812 8.0070561 10.91489162 7 14 C6.67 14.33 6.34 14.66 6 15 C5.92820036 16.51928038 5.91607993 18.04167482 5.9375 19.5625 C5.94652344 20.38878906 5.95554687 21.21507813 5.96484375 22.06640625 C5.97644531 22.70449219 5.98804687 23.34257812 6 24 C2.43904445 25.87501642 -1.1122886 26.95330847 -5 28 C-5 27.01 -5 26.02 -5 25 C-5.66 25 -6.32 25 -7 25 C-7.33 25.66 -7.66 26.32 -8 27 C-8.33 26.34 -8.66 25.68 -9 25 C-9.66 25 -10.32 25 -11 25 C-11.86269251 21.86628788 -12.34242828 18.79362609 -12.6875 15.5625 C-12.79449219 14.63566406 -12.90148437 13.70882813 -13.01171875 12.75390625 C-12.99291558 8.33516051 -11.78950735 5.78950735 -8.6875 2.6875 C-5.74318177 0.83874204 -4.3889145 0.71759046 -1 1 C-0.67 0.67 -0.34 0.34 0 0 Z M-11 7 C-11 7.66 -11 8.32 -11 9 C-10.34 8.67 -9.68 8.34 -9 8 C-9.66 7.67 -10.32 7.34 -11 7 Z M5 10 C5 10.99 5 11.98 5 13 C5.66 13 6.32 13 7 13 C7 12.01 7 11.02 7 10 C6.34 10 5.68 10 5 10 Z " fill="#3E3630" transform="translate(18,0)"/>
<path d="M0 0 C0.99 0.33 1.98 0.66 3 1 C3.6875 3.0625 3.6875 3.0625 4 5 C8.47883696 4.55296014 8.47883696 4.55296014 12 2 C12.33 5.3 12.66 8.6 13 12 C9.32326162 13.83836919 5.95007553 14.93651813 2 16 C2 15.01 2 14.02 2 13 C1.34 13 0.68 13 0 13 C-0.33 13.66 -0.66 14.32 -1 15 C-1.33 14.34 -1.66 13.68 -2 13 C-2.66 13 -3.32 13 -4 13 C-5.37432457 9.18243176 -4.67975039 5.92744671 -4 2 C-3.34 2.33 -2.68 2.66 -2 3 C-1.34 2.01 -0.68 1.02 0 0 Z " fill="#DDD1B3" transform="translate(11,12)"/>
<path d="M0 0 C1.32 0 2.64 0 4 0 C4 0.99 4 1.98 4 3 C4.66 3.33 5.32 3.66 6 4 C6.33 3.01 6.66 2.02 7 1 C7.99 1 8.98 1 10 1 C10.33 2.32 10.66 3.64 11 5 C7.49461443 6.96301592 3.86648272 7.95902388 0 9 C0 8.01 0 7.02 0 6 C-0.66 6 -1.32 6 -2 6 C-2.33 6.66 -2.66 7.32 -3 8 C-3.33 7.34 -3.66 6.68 -4 6 C-4.66 6 -5.32 6 -6 6 C-6.33 4.68 -6.66 3.36 -7 2 C-4.66666667 2 -2.33333333 2 0 2 C0 1.34 0 0.68 0 0 Z " fill="#41342F" transform="translate(13,19)"/>
<path d="M0 0 C7.38461538 -0.36923077 7.38461538 -0.36923077 10.5 1.5 C10.995 1.995 11.49 2.49 12 3 C9.44931155 5.35448165 8.28982642 5.98327924 4.75 6.1875 C3.8425 6.125625 2.935 6.06375 2 6 C1.34 4.02 0.68 2.04 0 0 Z " fill="#010101" transform="translate(13,11)"/>
<path d="M0 0 C-1.485 1.485 -1.485 1.485 -3 3 C-2.01 3.66 -1.02 4.32 0 5 C-4.75 4.125 -4.75 4.125 -7 3 C-7 2.34 -7 1.68 -7 1 C-3.375 -1.125 -3.375 -1.125 0 0 Z " fill="#000000" transform="translate(13,12)"/>
<path d="M0 0 C1.98 0.495 1.98 0.495 4 1 C3.67 1.99 3.34 2.98 3 4 C1.68 4 0.36 4 -1 4 C-0.67 2.68 -0.34 1.36 0 0 Z " fill="#DDD1B2" transform="translate(17,12)"/>
</svg>
